<?xml version="1.0" encoding="utf-8"?>
<!-- Generator: Adobe Illustrator 16.0.0, SVG Export Plug-In . SVG Version: 6.00 Build 0)  -->
<!DOCTYPE svg PUBLIC "-//W3C//DTD SVG 1.1//EN" "http://www.w3.org/Graphics/SVG/1.1/DTD/svg11.dtd">
<svg version="1.1" id="Layer_1" xmlns="http://www.w3.org/2000/svg" xmlns:xlink="http://www.w3.org/1999/xlink" x="0px" y="0px"
	 width="60.999px" height="60.998px" viewBox="0 0 60.999 60.998" enable-background="new 0 0 60.999 60.998" xml:space="preserve">
<path fill="#F47929" d="M30.499,60.998c-0.431,0-0.78-0.35-0.78-0.78v-6.251c-5.916-0.193-11.284-2.587-15.313-6.386l-4.484,4.483
	c-0.305,0.305-0.798,0.305-1.104,0c-0.305-0.305-0.305-0.798,0-1.102l4.489-4.488c-3.735-4.017-6.083-9.338-6.274-15.195H0.781
	C0.349,31.279,0,30.93,0,30.499s0.349-0.78,0.781-0.78h6.251c0.192-5.857,2.54-11.178,6.273-15.195l-4.488-4.488
	c-0.305-0.304-0.305-0.799,0-1.103c0.305-0.305,0.799-0.305,1.104,0l4.484,4.483c4.029-3.798,9.397-6.191,15.313-6.385V0.779
	c0-0.431,0.349-0.779,0.78-0.779c0.431,0,0.78,0.349,0.78,0.779v6.252c5.9,0.193,11.257,2.575,15.282,6.356l4.455-4.455
	c0.305-0.305,0.799-0.305,1.104,0c0.305,0.304,0.305,0.799,0,1.103l-4.457,4.457c3.751,4.02,6.111,9.354,6.303,15.226h6.252
	c0.432,0,0.781,0.35,0.781,0.78s-0.35,0.781-0.781,0.781h-6.252c-0.191,5.872-2.552,11.205-6.303,15.227l4.457,4.456
	c0.305,0.305,0.305,0.798,0,1.103s-0.799,0.305-1.104,0l-4.455-4.455c-4.025,3.782-9.382,6.164-15.282,6.357v6.251
	C31.279,60.648,30.93,60.998,30.499,60.998z M30.499,8.58c-12.086,0-21.92,9.832-21.92,21.919c0,12.086,9.834,21.92,21.92,21.92
	c12.087,0,21.92-9.834,21.92-21.92C52.419,18.412,42.587,8.58,30.499,8.58z M30.499,49.454c-5.182,0-9.886-2.09-13.312-5.473
	c-0.032-0.022-0.063-0.049-0.092-0.079c-0.029-0.028-0.056-0.06-0.079-0.093c-3.382-3.425-5.473-8.128-5.473-13.311
	s2.091-9.886,5.473-13.312c0.023-0.033,0.05-0.063,0.079-0.093c0.029-0.028,0.06-0.056,0.092-0.079
	c3.426-3.383,8.129-5.472,13.312-5.472c5.184,0,9.887,2.089,13.313,5.472c0.033,0.024,0.063,0.051,0.092,0.079
	c0.028,0.029,0.055,0.059,0.078,0.092c3.383,3.426,5.474,8.128,5.474,13.312s-2.091,9.888-5.474,13.313
	c-0.023,0.032-0.05,0.063-0.078,0.092c-0.029,0.029-0.059,0.056-0.092,0.078C40.386,47.364,35.683,49.454,30.499,49.454z
	 M31.279,37.634v10.243c4.21-0.186,8.034-1.876,10.951-4.544l-7.239-7.239C33.95,36.93,32.675,37.481,31.279,37.634z M18.769,43.333
	C21.685,46,25.51,47.691,29.72,47.877V37.633c-1.396-0.151-2.671-0.703-3.711-1.541L18.769,43.333z M36.094,34.989l7.239,7.241
	c2.669-2.917,4.357-6.741,4.544-10.951H37.634C37.481,32.675,36.929,33.951,36.094,34.989z M13.122,31.279
	c0.186,4.21,1.875,8.034,4.544,10.951l7.24-7.241c-0.835-1.038-1.389-2.314-1.541-3.71H13.122z M30.499,24.883
	c-3.096,0-5.616,2.519-5.616,5.616c0,3.097,2.52,5.616,5.616,5.616c3.098,0,5.616-2.52,5.616-5.616
	C36.115,27.401,33.597,24.883,30.499,24.883z M37.634,29.719h10.244c-0.188-4.209-1.876-8.033-4.544-10.951l-7.24,7.241
	C36.929,27.047,37.481,28.322,37.634,29.719z M13.122,29.719h10.243c0.152-1.395,0.705-2.672,1.542-3.71l-7.241-7.241
	C14.997,21.686,13.308,25.51,13.122,29.719z M18.769,17.664l7.24,7.241c1.04-0.836,2.315-1.39,3.711-1.54V13.121
	C25.509,13.307,21.685,14.996,18.769,17.664z M31.279,23.363c1.396,0.152,2.671,0.705,3.712,1.541l7.239-7.24
	c-2.917-2.668-6.741-4.357-10.951-4.543V23.363z"/>
</svg>
