<?xml version="1.0" encoding="utf-8"?>
<!-- Generator: Adobe Illustrator 16.0.0, SVG Export Plug-In . SVG Version: 6.00 Build 0)  -->
<!DOCTYPE svg PUBLIC "-//W3C//DTD SVG 1.1//EN" "http://www.w3.org/Graphics/SVG/1.1/DTD/svg11.dtd">
<svg version="1.1" id="Layer_1" xmlns="http://www.w3.org/2000/svg" xmlns:xlink="http://www.w3.org/1999/xlink" x="0px" y="0px"
	 width="240px" height="240px" viewBox="0 0 240 240" enable-background="new 0 0 240 240" xml:space="preserve">
<path fill="#FFFFFF" d="M236.719,207.516l-46.734-46.734c-2.109-2.109-4.969-3.281-7.969-3.281h-7.641
	C187.313,140.953,195,120.141,195,97.5C195,43.641,151.359,0,97.5,0S0,43.641,0,97.5S43.641,195,97.5,195
	c22.641,0,43.453-7.688,60-20.625v7.641c0,3,1.172,5.859,3.281,7.969l46.734,46.734c4.406,4.406,11.531,4.406,15.891,0
	l13.266-13.266C241.078,219.047,241.078,211.922,236.719,207.516z M97.5,157.5c-33.141,0-60-26.813-60-60c0-33.141,26.813-60,60-60
	c33.141,0,60,26.813,60,60C157.5,130.641,130.688,157.5,97.5,157.5z"/>
</svg>
