<?xml version="1.0" encoding="utf-8"?>
<!-- Generator: Adobe Illustrator 16.0.0, SVG Export Plug-In . SVG Version: 6.00 Build 0)  -->
<!DOCTYPE svg PUBLIC "-//W3C//DTD SVG 1.1//EN" "http://www.w3.org/Graphics/SVG/1.1/DTD/svg11.dtd">
<svg version="1.1" id="Layer_1" xmlns="http://www.w3.org/2000/svg" xmlns:xlink="http://www.w3.org/1999/xlink" x="0px" y="0px"
	 width="226.667px" height="219.887px" viewBox="0 0 226.667 219.887" enable-background="new 0 0 226.667 219.887"
	 xml:space="preserve">
<g>
	<polygon fill="#ECE7EA" points="226.667,25.105 226.667,219.887 0.716,219.887 0.716,25.105 113.691,15.063 	"/>
	<polygon fill="#F47929" points="226.667,0 226.667,25.105 201.561,25.105 186.498,12.553 201.561,0 	"/>
	<rect fill="#1D6BAC" width="200.845" height="25.105"/>
	<path fill="#D7CED1" d="M196.54,106.698H30.843c-2.08,0-3.765-1.687-3.765-3.766s1.686-3.766,3.765-3.766H196.54
		c2.08,0,3.766,1.687,3.766,3.766C200.306,105.013,198.62,106.698,196.54,106.698z"/>
	<g>
		<path fill="#8B7E7F" d="M103.649,126.783H30.843c-2.08,0-3.765-1.687-3.765-3.766s1.686-3.766,3.765-3.766h72.807
			c2.08,0,3.766,1.687,3.766,3.766S105.729,126.783,103.649,126.783z"/>
		<path fill="#8B7E7F" d="M103.649,146.867H30.843c-2.08,0-3.765-1.686-3.765-3.766c0-2.079,1.686-3.766,3.765-3.766h72.807
			c2.08,0,3.766,1.687,3.766,3.766C107.415,145.182,105.729,146.867,103.649,146.867z"/>
		<path fill="#8B7E7F" d="M103.649,166.952H30.843c-2.08,0-3.765-1.687-3.765-3.767c0-2.079,1.686-3.765,3.765-3.765h72.807
			c2.08,0,3.766,1.686,3.766,3.765C107.415,165.266,105.729,166.952,103.649,166.952z"/>
	</g>
	<rect x="123.733" y="123.018" fill="#F47929" width="72.807" height="60.253"/>
	<g>
		<path fill="#8B7E7F" d="M103.649,187.036H30.843c-2.08,0-3.765-1.686-3.765-3.765c0-2.08,1.686-3.767,3.765-3.767h72.807
			c2.08,0,3.766,1.687,3.766,3.767C107.415,185.351,105.729,187.036,103.649,187.036z"/>
		<path fill="#8B7E7F" d="M175.052,86.613c-6.781,0-12.068-2.967-13.798-7.744c-0.706-1.956,0.304-4.115,2.261-4.822
			c1.953-0.708,4.113,0.303,4.822,2.26c0.6,1.661,3.299,2.776,6.713,2.776c2.554,0,6.874-0.794,6.874-3.769
			c0-2.039-0.932-2.743-7.483-3.815c-2.913-0.476-5.924-0.969-8.46-2.303c-3.491-1.837-5.337-4.929-5.337-8.94
			c0-6.653,5.924-11.3,14.406-11.3c6.777,0,12.063,2.966,13.795,7.74c0.709,1.955-0.303,4.114-2.257,4.824
			c-1.957,0.71-4.115-0.303-4.823-2.257c-0.602-1.66-3.299-2.776-6.714-2.776c-2.554,0-6.874,0.794-6.874,3.769
			c0,2.035,0.932,2.738,7.479,3.81c2.913,0.477,5.925,0.97,8.462,2.305c3.492,1.837,5.339,4.93,5.339,8.943
			C189.457,81.967,183.532,86.613,175.052,86.613z"/>
		<path fill="#8B7E7F" d="M141.713,86.613c-1.407,0-2.711-0.787-3.358-2.063l-4.274-8.436l-4.274,8.436
			c-0.709,1.4-2.219,2.216-3.774,2.04c-1.561-0.172-2.851-1.296-3.235-2.817l-7.634-30.127c-0.511-2.016,0.71-4.064,2.726-4.575
			c2.016-0.51,4.064,0.709,4.575,2.726l5.165,20.387l3.092-6.101c0.642-1.266,1.939-2.063,3.359-2.063
			c1.418,0,2.717,0.798,3.359,2.063l3.091,6.101l5.165-20.387c0.512-2.017,2.561-3.236,4.576-2.726s3.236,2.56,2.726,4.575
			l-7.634,30.127c-0.387,1.521-1.676,2.646-3.235,2.817C141.989,86.606,141.851,86.613,141.713,86.613z"/>
		<path fill="#8B7E7F" d="M103.75,86.613H82.47c-2.08,0-3.766-1.686-3.766-3.765V52.721c0-2.079,1.686-3.765,3.766-3.765h21.28
			c2.08,0,3.765,1.686,3.765,3.765c0,2.08-1.686,3.767-3.765,3.767H86.235v22.595h17.515c2.08,0,3.765,1.687,3.765,3.766
			C107.515,84.928,105.83,86.613,103.75,86.613z"/>
		<path fill="#8B7E7F" d="M96.656,71.551H82.47c-2.08,0-3.766-1.687-3.766-3.766s1.686-3.766,3.766-3.766h14.187
			c2.081,0,3.766,1.687,3.766,3.766S98.736,71.551,96.656,71.551z"/>
		<path fill="#8B7E7F" d="M67.407,86.613c-1.081,0-2.135-0.466-2.865-1.32L45.458,62.934v19.915c0,2.079-1.686,3.765-3.766,3.765
			c-2.08,0-3.766-1.686-3.766-3.765V52.721c0-1.577,0.983-2.986,2.463-3.533c1.479-0.546,3.143-0.111,4.167,1.089l19.084,22.358
			V52.721c0-2.079,1.686-3.765,3.766-3.765c2.08,0,3.766,1.686,3.766,3.765v30.128c0,1.577-0.983,2.987-2.463,3.533
			C68.284,86.539,67.843,86.613,67.407,86.613z"/>
	</g>
</g>
</svg>
